<mxfile host="Electron" agent="Mozilla/5.0 (Windows NT 10.0; Win64; x64) AppleWebKit/537.36 (KHTML, like Gecko) draw.io/24.7.17 Chrome/128.0.6613.36 Electron/32.0.1 Safari/537.36" version="24.7.17">
  <diagram name="Page-1" id="e7vitAf72NwZrpKz9_Ie">
    <mxGraphModel dx="988" dy="578" grid="1" gridSize="10" guides="1" tooltips="1" connect="1" arrows="1" fold="1" page="1" pageScale="1" pageWidth="850" pageHeight="1100" math="0" shadow="0">
      <root>
        <mxCell id="0" />
        <mxCell id="1" parent="0" />
        <mxCell id="uDKXjKk5Kg-mjDR0Opt4-5" value="" style="rounded=0;whiteSpace=wrap;html=1;dashed=1;fillColor=none;" parent="1" vertex="1">
          <mxGeometry x="100" y="30" width="190" height="110" as="geometry" />
        </mxCell>
        <mxCell id="uDKXjKk5Kg-mjDR0Opt4-4" value="" style="rounded=1;whiteSpace=wrap;html=1;" parent="1" vertex="1">
          <mxGeometry x="160" y="100" width="30" height="30" as="geometry" />
        </mxCell>
        <mxCell id="uDKXjKk5Kg-mjDR0Opt4-6" value="Checkbox" style="text;html=1;align=left;verticalAlign=middle;whiteSpace=wrap;rounded=0;" parent="1" vertex="1">
          <mxGeometry x="110" y="30" width="170" height="30" as="geometry" />
        </mxCell>
        <mxCell id="uDKXjKk5Kg-mjDR0Opt4-7" value="&amp;nbsp;- circular state change policy" style="text;html=1;align=left;verticalAlign=middle;whiteSpace=wrap;rounded=0;" parent="1" vertex="1">
          <mxGeometry x="110" y="60" width="170" height="30" as="geometry" />
        </mxCell>
        <mxCell id="uDKXjKk5Kg-mjDR0Opt4-9" value="" style="rounded=1;whiteSpace=wrap;html=1;" parent="1" vertex="1">
          <mxGeometry x="120" y="100" width="30" height="30" as="geometry" />
        </mxCell>
        <mxCell id="uDKXjKk5Kg-mjDR0Opt4-10" value="" style="verticalLabelPosition=bottom;verticalAlign=top;html=1;shape=mxgraph.basic.tick" parent="1" vertex="1">
          <mxGeometry x="124.5" y="90" width="25.5" height="30" as="geometry" />
        </mxCell>
        <mxCell id="VQ7dve10hfscTf-xHSSG-1" value="" style="rounded=0;whiteSpace=wrap;html=1;dashed=1;fillColor=none;" vertex="1" parent="1">
          <mxGeometry x="300" y="30" width="190" height="110" as="geometry" />
        </mxCell>
        <mxCell id="VQ7dve10hfscTf-xHSSG-2" value="Slider" style="text;html=1;align=left;verticalAlign=middle;whiteSpace=wrap;rounded=0;" vertex="1" parent="1">
          <mxGeometry x="310" y="30" width="170" height="30" as="geometry" />
        </mxCell>
        <mxCell id="VQ7dve10hfscTf-xHSSG-3" value="&amp;nbsp;- range state change policy" style="text;html=1;align=left;verticalAlign=middle;whiteSpace=wrap;rounded=0;" vertex="1" parent="1">
          <mxGeometry x="310" y="60" width="170" height="30" as="geometry" />
        </mxCell>
        <mxCell id="VQ7dve10hfscTf-xHSSG-4" value="" style="rounded=1;whiteSpace=wrap;html=1;" vertex="1" parent="1">
          <mxGeometry x="320" y="110" width="150" height="10" as="geometry" />
        </mxCell>
        <mxCell id="VQ7dve10hfscTf-xHSSG-5" value="" style="rounded=1;whiteSpace=wrap;html=1;" vertex="1" parent="1">
          <mxGeometry x="430" y="95" width="10" height="40" as="geometry" />
        </mxCell>
      </root>
    </mxGraphModel>
  </diagram>
</mxfile>
